<svg width="18" height="19" viewBox="0 0 18 19" fill="none" xmlns="http://www.w3.org/2000/svg">
<g id="Action Items">
<path id="Vector" d="M5.75881 3.666V4.83184H16.8342V7.13964L15.5409 11.2439H5.39201L3.93472 0.75H0.512573V1.91583H2.91958L4.37687 12.4097H16.3959L18 7.31896V3.666H5.75881Z" fill="white"/>
<path id="Vector_2" d="M6.37756 13.5867C5.75938 13.5874 5.16672 13.8333 4.7296 14.2704C4.29248 14.7075 4.0466 15.3002 4.0459 15.9183C4.0459 16.5367 4.29156 17.1298 4.72883 17.5671C5.1661 18.0043 5.75917 18.25 6.37756 18.25C6.99596 18.25 7.58902 18.0043 8.0263 17.5671C8.46357 17.1298 8.70922 16.5367 8.70922 15.9183C8.70853 15.3002 8.46265 14.7075 8.02553 14.2704C7.58841 13.8332 6.99574 13.5874 6.37756 13.5867ZM6.37756 17.0842C6.14698 17.0842 5.92158 17.0158 5.72986 16.8877C5.53814 16.7596 5.38871 16.5775 5.30047 16.3645C5.21223 16.1515 5.18915 15.917 5.23413 15.6909C5.27912 15.4647 5.39015 15.257 5.55319 15.094C5.71624 14.9309 5.92397 14.8199 6.15012 14.7749C6.37627 14.7299 6.61068 14.753 6.82371 14.8412C7.03673 14.9295 7.21881 15.0789 7.34691 15.2706C7.47502 15.4624 7.54339 15.6878 7.54339 15.9183C7.54303 16.2274 7.42008 16.5237 7.20152 16.7423C6.98297 16.9609 6.68665 17.0838 6.37756 17.0842Z" fill="white"/>
<path id="Vector_3" d="M14.5383 13.5867C13.9201 13.5874 13.3275 13.8333 12.8904 14.2704C12.4533 14.7075 12.2074 15.3002 12.2067 15.9183C12.2067 16.5367 12.4523 17.1298 12.8896 17.5671C13.3269 18.0043 13.9199 18.25 14.5383 18.25C15.1567 18.25 15.7498 18.0043 16.1871 17.5671C16.6243 17.1298 16.87 16.5367 16.87 15.9183C16.8693 15.3002 16.6234 14.7075 16.1863 14.2704C15.7492 13.8332 15.1565 13.5874 14.5383 13.5867ZM14.5383 17.0842C14.3077 17.0842 14.0823 17.0158 13.8906 16.8877C13.6989 16.7596 13.5495 16.5775 13.4612 16.3645C13.373 16.1515 13.3499 15.917 13.3949 15.6909C13.4399 15.4647 13.5509 15.257 13.714 15.094C13.877 14.9309 14.0847 14.8199 14.3109 14.7749C14.537 14.7299 14.7714 14.753 14.9845 14.8412C15.1975 14.9295 15.3796 15.0789 15.5077 15.2706C15.6358 15.4624 15.7042 15.6878 15.7042 15.9183C15.7038 16.2274 15.5808 16.5237 15.3623 16.7423C15.1437 16.9609 14.8474 17.0838 14.5383 17.0842Z" fill="white"/>
</g>
</svg>
