<svg width="18" height="19" viewBox="0 0 18 19" fill="none" xmlns="http://www.w3.org/2000/svg">
<g id="pizza icon">
<g id="Group">
<path id="Vector" fill-rule="evenodd" clip-rule="evenodd" d="M2.14003 3.73206C0.925596 5.12383 0.144555 6.8985 0.00244141 8.85638H1.14288C1.28499 7.22031 1.94741 5.7334 2.96452 4.55538L2.14003 3.73206Z" fill="url(#paint0_linear_5_39)"/>
<path id="Vector_2" fill-rule="evenodd" clip-rule="evenodd" d="M3.78773 5.3775C2.9785 6.34059 2.44293 7.53975 2.30786 8.85636L7.26541 8.85519L3.78773 5.3775Z" fill="url(#paint1_linear_5_39)"/>
<path id="Vector_3" fill-rule="evenodd" clip-rule="evenodd" d="M8.13702 0.75C6.18266 0.886242 4.40682 1.65671 3.0127 2.86409L3.83837 3.68977C5.01991 2.69614 6.50682 2.05604 8.13702 1.92567V0.75Z" fill="url(#paint2_linear_5_39)"/>
<path id="Vector_4" fill-rule="evenodd" clip-rule="evenodd" d="M8.13676 3.08606C6.82719 3.21173 5.62921 3.72616 4.6626 4.51425L8.13676 7.98841V3.08606Z" fill="url(#paint3_linear_5_39)"/>
<path id="Vector_5" fill-rule="evenodd" clip-rule="evenodd" d="M2.30322 10.1342C2.42067 11.4508 2.9398 12.6547 3.74433 13.6236L7.26547 10.1354L2.30322 10.1342Z" fill="url(#paint4_linear_5_39)"/>
<path id="Vector_6" fill-rule="evenodd" clip-rule="evenodd" d="M0 10.1342C0.12802 12.0804 0.902013 13.8515 2.11409 15.2386L2.92097 14.4399C1.90856 13.2584 1.26023 11.7691 1.13691 10.1342H0Z" fill="url(#paint5_linear_5_39)"/>
<path id="Vector_7" fill-rule="evenodd" clip-rule="evenodd" d="M4.61108 14.4799C5.58592 15.2914 6.80269 15.8235 8.13692 15.9503V10.9552L4.61108 14.4799Z" fill="url(#paint6_linear_5_39)"/>
<path id="Vector_8" fill-rule="evenodd" clip-rule="evenodd" d="M2.98193 16.1089C4.37958 17.3315 6.16717 18.1137 8.1368 18.25V17.1107C6.48428 16.978 4.97975 16.3191 3.78999 15.302L2.98193 16.1089Z" fill="url(#paint7_linear_5_39)"/>
<path id="Vector_9" fill-rule="evenodd" clip-rule="evenodd" d="M15.3882 15.2397C16.6014 13.8515 17.3719 12.0827 17.5034 10.1354H16.3853C16.2608 11.7738 15.6101 13.2678 14.593 14.4505L15.3882 15.2397Z" fill="url(#paint8_linear_5_39)"/>
<path id="Vector_10" fill-rule="evenodd" clip-rule="evenodd" d="M10.2358 10.1354L13.7699 13.6354C14.578 12.6664 15.1018 11.4579 15.2192 10.1354H10.2358Z" fill="url(#paint9_linear_5_39)"/>
<path id="Vector_11" fill-rule="evenodd" clip-rule="evenodd" d="M15.2132 8.8552C15.0781 7.53506 14.5402 6.33238 13.7262 5.36694L10.2368 8.8552H15.2132Z" fill="url(#paint10_linear_5_39)"/>
<path id="Vector_12" fill-rule="evenodd" clip-rule="evenodd" d="M17.5001 8.85521C17.358 6.8985 16.5769 5.12266 15.3625 3.73206L14.5486 4.54598C15.5716 5.72518 16.2375 7.21444 16.3796 8.85521H17.5001Z" fill="url(#paint11_linear_5_39)"/>
<path id="Vector_13" fill-rule="evenodd" clip-rule="evenodd" d="M9.3667 18.25C11.3352 18.1137 13.1204 17.3315 14.5192 16.1112L13.7206 15.3126C12.5273 16.3273 11.0204 16.9827 9.3667 17.1119V18.25Z" fill="url(#paint12_linear_5_39)"/>
<path id="Vector_14" fill-rule="evenodd" clip-rule="evenodd" d="M9.3667 15.9527C10.7021 15.8282 11.9224 15.3008 12.8996 14.4916L9.3667 10.9564V15.9527Z" fill="url(#paint13_linear_5_39)"/>
</g>
</g>
<defs>
<linearGradient id="paint0_linear_5_39" x1="1.48348" y1="3.73206" x2="1.48348" y2="8.85638" gradientUnits="userSpaceOnUse">
<stop stop-color="#BD3030"/>
<stop offset="1" stop-color="#EA9A9A"/>
</linearGradient>
<linearGradient id="paint1_linear_5_39" x1="4.78664" y1="5.3775" x2="4.78664" y2="8.85636" gradientUnits="userSpaceOnUse">
<stop stop-color="#BD3030"/>
<stop offset="1" stop-color="#EA9A9A"/>
</linearGradient>
<linearGradient id="paint2_linear_5_39" x1="5.57486" y1="0.75" x2="5.57486" y2="3.68977" gradientUnits="userSpaceOnUse">
<stop stop-color="#BD3030"/>
<stop offset="1" stop-color="#EA9A9A"/>
</linearGradient>
<linearGradient id="paint3_linear_5_39" x1="6.39968" y1="3.08606" x2="6.39968" y2="7.98841" gradientUnits="userSpaceOnUse">
<stop stop-color="#BD3030"/>
<stop offset="1" stop-color="#EA9A9A"/>
</linearGradient>
<linearGradient id="paint4_linear_5_39" x1="4.78435" y1="10.1342" x2="4.78435" y2="13.6236" gradientUnits="userSpaceOnUse">
<stop stop-color="#BD3030"/>
<stop offset="1" stop-color="#EA9A9A"/>
</linearGradient>
<linearGradient id="paint5_linear_5_39" x1="1.46049" y1="10.1342" x2="1.46049" y2="15.2386" gradientUnits="userSpaceOnUse">
<stop stop-color="#BD3030"/>
<stop offset="1" stop-color="#EA9A9A"/>
</linearGradient>
<linearGradient id="paint6_linear_5_39" x1="6.374" y1="10.9552" x2="6.374" y2="15.9503" gradientUnits="userSpaceOnUse">
<stop stop-color="#BD3030"/>
<stop offset="1" stop-color="#EA9A9A"/>
</linearGradient>
<linearGradient id="paint7_linear_5_39" x1="5.55937" y1="15.302" x2="5.55937" y2="18.25" gradientUnits="userSpaceOnUse">
<stop stop-color="#BD3030"/>
<stop offset="1" stop-color="#EA9A9A"/>
</linearGradient>
<linearGradient id="paint8_linear_5_39" x1="16.0482" y1="10.1354" x2="16.0482" y2="15.2397" gradientUnits="userSpaceOnUse">
<stop stop-color="#BD3030"/>
<stop offset="1" stop-color="#EA9A9A"/>
</linearGradient>
<linearGradient id="paint9_linear_5_39" x1="12.7275" y1="10.1354" x2="12.7275" y2="13.6354" gradientUnits="userSpaceOnUse">
<stop stop-color="#BD3030"/>
<stop offset="1" stop-color="#EA9A9A"/>
</linearGradient>
<linearGradient id="paint10_linear_5_39" x1="12.725" y1="5.36694" x2="12.725" y2="8.8552" gradientUnits="userSpaceOnUse">
<stop stop-color="#BD3030"/>
<stop offset="1" stop-color="#EA9A9A"/>
</linearGradient>
<linearGradient id="paint11_linear_5_39" x1="16.0243" y1="3.73206" x2="16.0243" y2="8.85521" gradientUnits="userSpaceOnUse">
<stop stop-color="#BD3030"/>
<stop offset="1" stop-color="#EA9A9A"/>
</linearGradient>
<linearGradient id="paint12_linear_5_39" x1="11.943" y1="15.3126" x2="11.943" y2="18.25" gradientUnits="userSpaceOnUse">
<stop stop-color="#BD3030"/>
<stop offset="1" stop-color="#EA9A9A"/>
</linearGradient>
<linearGradient id="paint13_linear_5_39" x1="11.1331" y1="10.9564" x2="11.1331" y2="15.9527" gradientUnits="userSpaceOnUse">
<stop stop-color="#BD3030"/>
<stop offset="1" stop-color="#EA9A9A"/>
</linearGradient>
</defs>
</svg>
